<?xml version="1.0" encoding="utf-8"?>
<!-- Generator: Adobe Illustrator 19.2.1, SVG Export Plug-In . SVG Version: 6.00 Build 0)  -->
<svg version="1.1" id="Capa_1" xmlns="http://www.w3.org/2000/svg" xmlns:xlink="http://www.w3.org/1999/xlink" x="0px" y="0px"
	 viewBox="0 0 290 48" style="enable-background:new 0 0 290 48;" xml:space="preserve">
<style type="text/css">
	.st0{fill:#FFFFFF;}
</style>
<path class="st0" d="M125.3,6.5c-1.1,0-2,0.4-2.7,1.1c-0.7,0.7-1.1,1.6-1.1,2.6c0,1.1,0.4,2,1.1,2.7c0.7,0.7,1.6,1.1,2.7,1.1
	c1,0,1.8-0.4,2.6-1.1c0.7-0.7,1.1-1.6,1.1-2.7c0-1-0.4-1.8-1.1-2.6C127.2,6.8,126.3,6.5,125.3,6.5z"/>
<path class="st0" d="M161.7,10.2c-1.1-1.1-2.5-2-4-2.7c-1.5-0.6-3.1-1-4.9-1h-2.5c-1.7,0-3.4,0.3-4.9,1c-1.5,0.6-2.9,1.5-4,2.7
	c-1.1,1.1-2.1,2.5-2.7,4c-0.7,1.5-1,3.2-1,4.9v12.5c0,1.7,0.3,3.4,1,4.9s1.6,2.9,2.7,4s2.5,2,4,2.7s3.2,1,4.9,1h2.5
	c1.7,0,3.4-0.3,4.9-1s2.8-1.6,4-2.7c1.1-1.1,2.1-2.5,2.7-4c0.7-1.5,1-3.2,1-4.9V19.1c0-1.8-0.3-3.4-1-4.9
	C163.7,12.7,162.8,11.3,161.7,10.2z M157.8,24.2v2.5v5c0,1.4-0.5,2.6-1.5,3.6s-2.2,1.5-3.5,1.5h-2.5c-1.5,0-2.7-0.5-3.6-1.5
	s-1.4-2.2-1.4-3.6v-5v-2.5v-5c0-1.4,0.5-2.6,1.4-3.6c0.9-1,2.2-1.5,3.6-1.5h2.5c1.3,0,2.5,0.5,3.5,1.5s1.5,2.2,1.5,3.6V24.2z"/>
<path class="st0" d="M35.3,10.2c-1.1-1.1-2.5-2-4-2.7c-1.5-0.6-3.1-1-4.9-1h-2.5c-1.7,0-3.4,0.3-4.9,1c-1.5,0.6-2.9,1.5-4,2.7
	c-1.1,1.1-2.1,2.5-2.7,4c-0.7,1.5-1,3.2-1,4.9v12.5c0,1.7,0.3,3.4,1,4.9s1.6,2.9,2.7,4s2.5,2,4,2.7s3.2,1,4.9,1h2.5
	c1.7,0,3.4-0.3,4.9-1s2.8-1.6,4-2.7c1.1-1.1,2.1-2.5,2.7-4c0.7-1.5,1-3.2,1-4.9V19.1c0-1.8-0.3-3.4-1-4.9S36.4,11.3,35.3,10.2z
	 M31.4,24.2v2.5v5c0,1.4-0.5,2.6-1.5,3.6s-2.2,1.5-3.5,1.5h-2.5c-1.5,0-2.7-0.5-3.6-1.5c-0.9-1-1.4-2.2-1.4-3.6v-5v-2.5v-5
	c0-1.4,0.5-2.6,1.4-3.6c0.9-1,2.2-1.5,3.6-1.5h2.5c1.3,0,2.5,0.5,3.5,1.5s1.5,2.2,1.5,3.6V24.2z"/>
<path class="st0" d="M71.9,10.2c-1.1-1.1-2.5-2-4-2.7c-1.5-0.6-3.1-1-4.9-1h-2.5c-1.7,0-3.4,0.3-4.9,1c-1.5,0.6-2.9,1.5-4,2.7
	c-1.1,1.1-2.1,2.5-2.7,4c-0.7,1.5-1,3.2-1,4.9v12.5c0,1.7,0.3,3.4,1,4.9c0.7,1.5,1.6,2.9,2.7,4c1.1,1.1,2.5,2,4,2.7s3.2,1,4.9,1H63
	c1.7,0,3.4-0.3,4.9-1s2.8-1.6,4-2.7c1.1-1.1,2.1-2.5,2.7-4c0.7-1.5,1-3.2,1-4.9V19.1c0-1.8-0.3-3.4-1-4.9
	C73.9,12.7,73,11.3,71.9,10.2z M68,24.2v2.5v5c0,1.4-0.5,2.6-1.5,3.6s-2.2,1.5-3.5,1.5h-2.5c-1.5,0-2.7-0.5-3.6-1.5
	c-0.9-1-1.4-2.2-1.4-3.6v-5v-2.5v-5c0-1.4,0.5-2.6,1.4-3.6c0.9-1,2.2-1.5,3.6-1.5H63c1.3,0,2.5,0.5,3.5,1.5s1.5,2.2,1.5,3.6V24.2z"
	/>
<path class="st0" d="M198.3,10.2c-1.1-1.1-2.5-2-4-2.7c-1.5-0.6-3.1-1-4.9-1h-2.5c-1.7,0-3.4,0.3-4.9,1c-1.5,0.6-2.9,1.5-4,2.7
	c-1.1,1.1-2.1,2.5-2.7,4c-0.7,1.5-1,3.2-1,4.9v12.5c0,1.7,0.3,3.4,1,4.9c0.7,1.5,1.6,2.9,2.7,4c1.1,1.1,2.5,2,4,2.7s3.2,1,4.9,1h2.5
	c1.7,0,3.4-0.3,4.9-1s2.8-1.6,4-2.7c1.1-1.1,2.1-2.5,2.7-4c0.7-1.5,1-3.2,1-4.9V19.1c0-1.8-0.3-3.4-1-4.9S199.4,11.3,198.3,10.2z
	 M194.4,24.2v2.5v5c0,1.4-0.5,2.6-1.5,3.6s-2.2,1.5-3.5,1.5h-2.5c-1.5,0-2.7-0.5-3.6-1.5c-0.9-1-1.4-2.2-1.4-3.6v-5v-2.5v-5
	c0-1.4,0.5-2.6,1.4-3.6c0.9-1,2.2-1.5,3.6-1.5h2.5c1.3,0,2.5,0.5,3.5,1.5s1.5,2.2,1.5,3.6V24.2z"/>
<path class="st0" d="M108.4,10.2c-1.1-1.1-2.5-2-4-2.7c-1.5-0.6-3.1-1-4.9-1H97c-1.7,0-3.4,0.3-4.9,1c-1.5,0.6-2.9,1.5-4,2.7
	c-1.1,1.1-2.1,2.5-2.7,4c-0.7,1.5-1,3.2-1,4.9v12.5c0,1.7,0.3,3.4,1,4.9c0.7,1.5,1.6,2.9,2.7,4c1.1,1.1,2.5,2,4,2.7s3.2,1,4.9,1h2.5
	c1.7,0,3.4-0.3,4.9-1s2.8-1.6,4-2.7c1.1-1.1,2.1-2.5,2.7-4c0.7-1.5,1-3.2,1-4.9V19.1c0-1.8-0.3-3.4-1-4.9
	C110.4,12.7,109.5,11.3,108.4,10.2z M104.5,24.2v2.5v5c0,1.4-0.5,2.6-1.5,3.6s-2.2,1.5-3.5,1.5H97c-1.5,0-2.7-0.5-3.6-1.5
	c-0.9-1-1.4-2.2-1.4-3.6v-5v-2.5v-5c0-1.4,0.5-2.6,1.4-3.6c0.9-1,2.2-1.5,3.6-1.5h2.5c1.3,0,2.5,0.5,3.5,1.5s1.5,2.2,1.5,3.6V24.2z"
	/>
<path class="st0" d="M277.2,40.7c-0.5-1.2-0.8-2.5-0.8-3.9h-2.8V11.6c0-2.4,0.4-3.9,1.2-4.5c0.1-0.1,0.1-0.2,0.1-0.3
	c0-0.1-0.1-0.2-0.3-0.2h-9.7c-0.2,0-0.3,0.1-0.3,0.2c0,0.1,0,0.2,0.1,0.3c0.9,0.7,1.4,2.2,1.4,4.5v2.8v9.8v8.1v4.5v2.5
	c0,2.2-0.5,3.8-1.4,4.5c-0.2,0.3-0.2,0.5,0.2,0.5h3.7h7.6h2.8v0.1c0.1,0,0.2,0,0.2-0.1c0.1-0.1,0.1-0.2,0-0.3
	C278.3,43,277.7,41.9,277.2,40.7z"/>
<path class="st0" d="M234.8,10.2c-1.1-1.1-2.5-2-4-2.7c-1.5-0.6-3.1-1-4.9-1h-2.5c-1.7,0-3.4,0.3-4.9,1c-1.5,0.6-2.9,1.5-4,2.7
	c-1.1,1.1-2.1,2.5-2.7,4c-0.7,1.5-1,3.2-1,4.9v12.5c0,1.7,0.3,3.4,1,4.9c0.7,1.5,1.6,2.9,2.7,4c1.1,1.1,2.5,2,4,2.7s3.2,1,4.9,1h2.5
	c1.7,0,3.4-0.3,4.9-1s2.8-1.6,4-2.7c1.1-1.1,2.1-2.5,2.7-4c0.7-1.5,1-3.2,1-4.9V19.1c0-1.8-0.3-3.4-1-4.9S235.9,11.3,234.8,10.2z
	 M230.9,24.2v2.5v5c0,1.4-0.5,2.6-1.5,3.6s-2.2,1.5-3.5,1.5h-2.5c-1.5,0-2.7-0.5-3.6-1.5c-0.9-1-1.4-2.2-1.4-3.6v-5v-2.5v-5
	c0-1.4,0.5-2.6,1.4-3.6c0.9-1,2.2-1.5,3.6-1.5h2.5c1.3,0,2.5,0.5,3.5,1.5s1.5,2.2,1.5,3.6V24.2z"/>
<path class="st0" d="M251.7,6.5c-1.1,0-2,0.4-2.7,1.1c-0.7,0.7-1.1,1.6-1.1,2.6c0,1.1,0.4,2,1.1,2.7c0.7,0.7,1.6,1.1,2.7,1.1
	c1,0,1.8-0.4,2.6-1.1c0.7-0.7,1.1-1.6,1.1-2.7c0-1-0.4-1.8-1.1-2.6C253.6,6.8,252.7,6.5,251.7,6.5z"/>
<path d="M282.1,37.3c-0.6-1.5-1-3.2-1.2-5H278V8.2c0-1.9,0.4-3.2,1.2-4l0.3-0.3c0.3-0.3,0.4-0.7,0.1-1.2c-0.2-0.5-0.9-0.7-1.8-0.7
	h-9.7c-0.8,0-1.4,0.2-1.7,0.5L264,4.8c-0.9,0.2-1.5,0.5-1.7,1.1c-0.2,0.5-0.1,1.1,0.3,1.6c0.4,0.4,0.8,0.9,1.1,1.6
	c0.3,0.7,0.5,1.6,0.5,2.5v27.7c0,0.8-0.1,1.5-0.3,2.2c-0.2,0.7-0.5,1.2-0.8,1.5c-0.2,0.5-0.4,1-0.6,1.4c-0.1,0.4-0.2,0.7-0.1,0.9
	c0,0.2,0.2,0.4,0.6,0.5c0.4,0.1,1,0.2,1.8,0.2h17.5l-0.5-1l2.8-2.8C283.6,40.5,282.7,38.9,282.1,37.3z M279.2,44.3
	c0,0.1-0.1,0.1-0.2,0.1v-0.1h-2.8h-7.6h-3.7c-0.4,0-0.4-0.2-0.2-0.5c0.9-0.7,1.4-2.3,1.4-4.5v-2.5v-4.5v-8.1v-9.8v-2.8
	c0-2.3-0.5-3.8-1.4-4.5c-0.1-0.1-0.1-0.2-0.1-0.3c0-0.1,0.1-0.2,0.3-0.2h9.7c0.2,0,0.3,0.1,0.3,0.2c0,0.1,0,0.2-0.1,0.3
	c-0.8,0.6-1.2,2.1-1.2,4.5v25.2h2.8c0,1.4,0.3,2.7,0.8,3.9s1.1,2.3,2,3.3C279.3,44.1,279.3,44.2,279.2,44.3z"/>
<path d="M255,2c-0.8,0-1.5,0.1-2.1,0.4c-0.6,0.3-1.2,0.7-1.6,1.1l-1.6,1.7c-1,0.4-1.8,1-2.5,1.9c-0.7,0.9-1,1.9-1,3.1
	c0,1.5,0.5,2.8,1.5,3.8c1,1.1,2.3,1.6,3.9,1.6c1.2,0,2.3-0.2,3.1-0.9s1.5-1.5,1.9-2.6l1.7-1.6c0.3-0.4,0.7-1,1-1.6
	c0.3-0.7,0.5-1.4,0.5-2.1c0-1.3-0.4-2.5-1.4-3.4C257.4,2.5,256.3,2,255,2z M254.3,12.9c-0.8,0.7-1.6,1.1-2.6,1.1
	c-1.1,0-2-0.4-2.7-1.1c-0.7-0.7-1.1-1.6-1.1-2.7c0-1,0.4-1.9,1.1-2.6c0.7-0.7,1.6-1.1,2.7-1.1c1,0,1.9,0.3,2.6,1.1
	c0.7,0.8,1.1,1.6,1.1,2.6C255.4,11.3,255,12.2,254.3,12.9z"/>
<path d="M225.9,14.1h-2.5c-1.4,0-2.7,0.5-3.6,1.5c-0.9,1-1.4,2.2-1.4,3.6v5v2.5v5c0,1.4,0.5,2.6,1.4,3.6c0.9,1,2.1,1.5,3.6,1.5h2.5
	c1.3,0,2.5-0.5,3.5-1.5s1.5-2.2,1.5-3.6v-5v-2.5v-5c0-1.4-0.5-2.6-1.5-3.6S227.2,14.1,225.9,14.1z M229.3,31.7v0.5h-2.5
	c-1.1,0-2.1-0.4-2.8-1.2s-1.1-1.7-1.1-2.7V15.7h0.5h2.5c0.9,0,1.6,0.4,2.3,1c0.7,0.7,1,1.5,1,2.4h0.1V31.7z"/>
<path d="M239,6c-1.3-1.2-2.7-2.2-4.4-2.9c-1.7-0.7-3.5-1.1-5.4-1.1h-2.4c-1.9,0-3.7,0.4-5.4,1.1c-1.7,0.7-3.1,1.6-4.4,2.9l-0.6,0.7
	c-2.1,1.2-3.9,2.8-5.2,5c-1.3,2.1-2,4.6-2,7.4v12.5c0,2,0.4,3.9,1.1,5.6c0.7,1.7,1.7,3.2,3,4.5c1.3,1.3,2.9,2.3,4.6,3.1
	c1.8,0.7,3.6,1.1,5.6,1.1h2.5c2.7,0,5.1-0.6,7.3-2c2.2-1.3,3.9-3,5.1-5.1l0.6-0.7c1.3-1.3,2.3-2.7,3-4.4s1.1-3.4,1.1-5.3V15.8
	c0-1.9-0.4-3.7-1.1-5.4C241.2,8.7,240.3,7.2,239,6z M238.5,31.6c0,1.7-0.3,3.4-1,4.9c-0.6,1.5-1.6,2.9-2.7,4c-1.2,1.1-2.5,2-4,2.7
	s-3.2,1-4.9,1h-2.5c-1.7,0-3.4-0.3-4.9-1s-2.9-1.6-4-2.7c-1.1-1.1-2-2.5-2.7-4c-0.7-1.5-1-3.2-1-4.9V19.1c0-1.7,0.3-3.4,1-4.9
	c0.6-1.5,1.6-2.9,2.7-4c1.1-1.2,2.5-2.1,4-2.7c1.5-0.7,3.2-1,4.9-1h2.5c1.8,0,3.4,0.4,4.9,1c1.5,0.7,2.9,1.6,4,2.7
	c1.1,1.1,2,2.5,2.7,4s1,3.1,1,4.9V31.6z"/>
<path d="M202.5,6c-1.3-1.2-2.7-2.2-4.4-2.9c-1.7-0.7-3.5-1.1-5.4-1.1h-2.3c-1.9,0-3.7,0.4-5.4,1.1c-1.7,0.7-3.1,1.6-4.4,2.9
	l-0.7,0.7c-2.1,1.2-3.9,2.8-5.2,5c-1.3,2.1-2,4.6-2,7.4v12.5c0,2,0.4,3.9,1.1,5.6c0.7,1.7,1.7,3.2,3,4.5c1.3,1.3,2.9,2.3,4.6,3.1
	c1.8,0.7,3.6,1.1,5.6,1.1h2.5c2.7,0,5.1-0.6,7.3-2c2.2-1.3,3.9-3,5.1-5.1l0.6-0.7c1.3-1.3,2.3-2.7,3-4.4s1.1-3.4,1.1-5.3V15.8
	c0-1.9-0.4-3.7-1.1-5.4C204.7,8.7,203.8,7.2,202.5,6z M202,31.6c0,1.7-0.3,3.4-1,4.9c-0.6,1.5-1.6,2.9-2.7,4c-1.2,1.1-2.5,2-4,2.7
	s-3.2,1-4.9,1h-2.5c-1.7,0-3.4-0.3-4.9-1s-2.9-1.6-4-2.7c-1.1-1.1-2-2.5-2.7-4c-0.7-1.5-1-3.2-1-4.9V19.1c0-1.7,0.3-3.4,1-4.9
	c0.6-1.5,1.6-2.9,2.7-4c1.1-1.2,2.5-2.1,4-2.7c1.5-0.7,3.2-1,4.9-1h2.5c1.8,0,3.4,0.4,4.9,1c1.5,0.7,2.9,1.6,4,2.7
	c1.1,1.1,2,2.5,2.7,4s1,3.1,1,4.9V31.6z"/>
<path d="M189.4,14.1h-2.5c-1.4,0-2.7,0.5-3.6,1.5c-0.9,1-1.4,2.2-1.4,3.6v5v2.5v5c0,1.4,0.5,2.6,1.4,3.6c0.9,1,2.1,1.5,3.6,1.5h2.5
	c1.3,0,2.5-0.5,3.5-1.5s1.5-2.2,1.5-3.6v-5v-2.5v-5c0-1.4-0.5-2.6-1.5-3.6S190.7,14.1,189.4,14.1z M192.8,31.7v0.5h-2.5
	c-1.1,0-2.1-0.4-2.8-1.2s-1.1-1.7-1.1-2.7V15.7h0.5h2.5c0.9,0,1.6,0.4,2.3,1c0.7,0.7,1,1.5,1,2.4h0.1V31.7z"/>
<path d="M152.8,14.1h-2.5c-1.4,0-2.7,0.5-3.6,1.5c-0.9,1-1.4,2.2-1.4,3.6v5v2.5v5c0,1.4,0.5,2.6,1.4,3.6s2.1,1.5,3.6,1.5h2.5
	c1.3,0,2.5-0.5,3.5-1.5s1.5-2.2,1.5-3.6v-5v-2.5v-5c0-1.4-0.5-2.6-1.5-3.6S154.1,14.1,152.8,14.1z M156.2,31.7v0.5h-2.5
	c-1.1,0-2.1-0.4-2.8-1.2s-1.1-1.7-1.1-2.7V15.7h0.5h2.5c0.9,0,1.6,0.4,2.3,1c0.7,0.7,1,1.5,1,2.4h0.1V31.7z"/>
<path d="M165.9,6c-1.3-1.2-2.7-2.2-4.4-2.9C159.8,2.4,158,2,156.1,2h-2.3c-1.9,0-3.7,0.4-5.4,1.1c-1.7,0.7-3.1,1.6-4.4,2.9l-0.7,0.7
	c-2.1,1.2-3.9,2.8-5.2,5c-1.3,2.1-2,4.6-2,7.4v12.5c0,2,0.4,3.9,1.1,5.6c0.7,1.7,1.7,3.2,3,4.5c1.3,1.3,2.9,2.3,4.6,3.1
	c1.8,0.7,3.6,1.1,5.6,1.1h2.5c2.7,0,5.1-0.6,7.3-2c2.2-1.3,3.9-3,5.1-5.1l0.6-0.7c1.3-1.3,2.3-2.7,3-4.4s1.1-3.4,1.1-5.3V15.8
	c0-1.9-0.4-3.7-1.1-5.4C168.1,8.7,167.2,7.2,165.9,6z M165.4,31.6c0,1.7-0.3,3.4-1,4.9c-0.6,1.5-1.6,2.9-2.7,4c-1.2,1.1-2.5,2-4,2.7
	s-3.2,1-4.9,1h-2.5c-1.7,0-3.4-0.3-4.9-1s-2.9-1.6-4-2.7s-2-2.5-2.7-4s-1-3.2-1-4.9V19.1c0-1.7,0.3-3.4,1-4.9c0.6-1.5,1.6-2.9,2.7-4
	c1.1-1.2,2.5-2.1,4-2.7c1.5-0.7,3.2-1,4.9-1h2.5c1.8,0,3.4,0.4,4.9,1c1.5,0.7,2.9,1.6,4,2.7c1.1,1.1,2,2.5,2.7,4
	c0.7,1.5,1,3.1,1,4.9V31.6z"/>
<path d="M128.6,2c-0.8,0-1.5,0.1-2.1,0.4c-0.6,0.3-1.2,0.7-1.6,1.1l-1.6,1.7c-1,0.4-1.8,1-2.5,1.9c-0.7,0.9-1,1.9-1,3.1
	c0,1.5,0.5,2.7,1.5,3.8s2.3,1.6,3.9,1.6c1.2,0,2.2-0.3,3.1-0.9c0.8-0.7,1.5-1.5,1.9-2.6l1.7-1.6c0.3-0.4,0.7-1,1-1.6
	c0.3-0.7,0.5-1.4,0.5-2.1c0-1.3-0.4-2.5-1.4-3.4C131,2.5,129.9,2,128.6,2z M127.9,12.9c-0.8,0.7-1.6,1.1-2.6,1.1
	c-1.1,0-2-0.4-2.7-1.1c-0.7-0.7-1.1-1.6-1.1-2.7c0-1,0.4-1.9,1.1-2.6c0.7-0.7,1.6-1.1,2.7-1.1c1,0,1.9,0.3,2.6,1.1
	c0.7,0.8,1.1,1.6,1.1,2.6C129,11.3,128.6,12.2,127.9,12.9z"/>
<path d="M112.6,6c-1.3-1.2-2.7-2.2-4.4-2.9c-1.7-0.7-3.5-1.1-5.4-1.1h-2.4c-1.9,0-3.7,0.4-5.4,1.1c-1.7,0.7-3.1,1.6-4.4,2.9
	l-0.7,0.7c-2.1,1.2-3.9,2.8-5.2,5c-1.3,2.1-2,4.6-2,7.4v12.5c0,2,0.4,3.9,1.1,5.6c0.7,1.7,1.7,3.2,3,4.5s2.9,2.3,4.6,3.1
	c1.8,0.7,3.6,1.1,5.6,1.1h2.6c2.7,0,5.1-0.7,7.3-2c2.2-1.3,3.9-3,5.1-5.1l0.6-0.7c1.3-1.3,2.3-2.7,3-4.4c0.7-1.7,1.1-3.4,1.1-5.3
	V15.8c0-1.9-0.4-3.7-1.1-5.4C114.8,8.7,113.9,7.2,112.6,6z M112.1,31.6c0,1.7-0.3,3.4-1,4.9c-0.6,1.5-1.6,2.9-2.7,4
	c-1.2,1.1-2.5,2-4,2.7s-3.2,1-4.9,1H97c-1.7,0-3.4-0.3-4.9-1s-2.9-1.6-4-2.7c-1.1-1.1-2-2.5-2.7-4c-0.7-1.5-1-3.2-1-4.9V19.1
	c0-1.7,0.3-3.4,1-4.9c0.6-1.5,1.6-2.9,2.7-4c1.1-1.2,2.5-2.1,4-2.7c1.5-0.7,3.2-1,4.9-1h2.5c1.8,0,3.4,0.4,4.9,1
	c1.5,0.7,2.9,1.6,4,2.7c1.1,1.1,2,2.5,2.7,4c0.7,1.5,1,3.1,1,4.9V31.6z"/>
<path d="M99.5,14.1H97c-1.4,0-2.7,0.5-3.6,1.5c-0.9,1-1.4,2.2-1.4,3.6v5v2.5v5c0,1.4,0.5,2.6,1.4,3.6c0.9,1,2.1,1.5,3.6,1.5h2.5
	c1.3,0,2.5-0.5,3.5-1.5s1.5-2.2,1.5-3.6v-5v-2.5v-5c0-1.4-0.5-2.6-1.5-3.6S100.8,14.1,99.5,14.1z M102.9,31.7v0.5h-2.5
	c-1.1,0-2.1-0.4-2.8-1.2c-0.7-0.8-1.1-1.7-1.1-2.7V15.7H97h2.5c0.9,0,1.6,0.4,2.3,1c0.7,0.7,1,1.5,1,2.4h0.1V31.7z"/>
<path d="M76,6c-1.2-1.3-2.7-2.2-4.3-2.9C70,2.4,68.2,2,66.3,2h-2.5c-1.9,0-3.7,0.4-5.4,1.1C56.7,3.8,55.3,4.7,54,6l-0.6,0.7
	c-2.1,1.2-3.9,2.8-5.2,5c-1.3,2.1-2,4.6-2,7.4v12.5c0,2,0.4,3.9,1.1,5.6c0.7,1.7,1.7,3.2,3,4.5c1.3,1.3,2.9,2.3,4.6,3.1
	c1.8,0.7,3.6,1.1,5.6,1.1H63c2.7,0,5.1-0.7,7.3-2c2.2-1.3,3.9-3,5.1-5.1l0.6-0.7c1.3-1.3,2.3-2.7,3-4.4s1.1-3.4,1.1-5.3V15.8
	c0-1.9-0.4-3.7-1.1-5.4C78.2,8.7,77.3,7.2,76,6z M75.6,31.6c0,1.7-0.3,3.4-1,4.9c-0.6,1.5-1.6,2.9-2.7,4c-1.2,1.1-2.5,2-4,2.7
	s-3.2,1-4.9,1h-2.5c-1.7,0-3.4-0.3-4.9-1s-2.9-1.6-4-2.7c-1.1-1.1-2-2.5-2.7-4c-0.7-1.5-1-3.2-1-4.9V19.1c0-1.7,0.3-3.4,1-4.9
	c0.6-1.5,1.6-2.9,2.7-4c1.1-1.2,2.5-2.1,4-2.7c1.5-0.7,3.2-1,4.9-1H63c1.8,0,3.4,0.4,4.9,1c1.5,0.7,2.9,1.6,4,2.7
	c1.1,1.1,2,2.5,2.7,4c0.7,1.5,1,3.1,1,4.9V31.6z"/>
<path d="M63,14.1h-2.5c-1.4,0-2.7,0.5-3.6,1.5c-0.9,1-1.4,2.2-1.4,3.6v5v2.5v5c0,1.4,0.5,2.6,1.4,3.6c0.9,1,2.1,1.5,3.6,1.5H63
	c1.3,0,2.5-0.5,3.5-1.5s1.5-2.2,1.5-3.6v-5v-2.5v-5c0-1.4-0.5-2.6-1.5-3.6S64.3,14.1,63,14.1z M66.4,31.7v0.5h-2.5
	c-1.1,0-2.1-0.4-2.8-1.2c-0.7-0.8-1.1-1.7-1.1-2.7V15.7h0.5H63c0.9,0,1.6,0.4,2.3,1c0.7,0.7,1,1.5,1,2.4h0.1V31.7z"/>
<path d="M39.5,6c-1.3-1.2-2.7-2.2-4.4-2.9C33.4,2.4,31.6,2,29.7,2h-2.5c-1.9,0-3.7,0.4-5.3,1.1c-1.7,0.7-3.1,1.6-4.4,2.9l-0.6,0.7
	c-2.1,1.2-3.9,2.8-5.2,5c-1.3,2.1-2,4.6-2,7.4v12.5c0,2,0.4,3.9,1.1,5.6c0.7,1.7,1.7,3.2,3,4.5c1.3,1.3,2.9,2.3,4.6,3.1
	c1.8,0.7,3.6,1.1,5.6,1.1h2.5c2.7,0,5.1-0.7,7.3-2c2.2-1.3,3.9-3,5.1-5.1l0.6-0.7c1.3-1.3,2.3-2.7,3-4.4s1.1-3.4,1.1-5.3V15.8
	c0-1.9-0.4-3.7-1.1-5.4C41.7,8.7,40.8,7.2,39.5,6z M39,31.6c0,1.7-0.3,3.4-1,4.9c-0.6,1.5-1.6,2.9-2.7,4c-1.2,1.1-2.5,2-4,2.7
	s-3.2,1-4.9,1h-2.5c-1.7,0-3.4-0.3-4.9-1s-2.9-1.6-4-2.7s-2-2.5-2.7-4s-1-3.2-1-4.9V19.1c0-1.7,0.3-3.4,1-4.9c0.6-1.5,1.6-2.9,2.7-4
	c1.1-1.2,2.5-2.1,4-2.7c1.5-0.7,3.2-1,4.9-1h2.5c1.8,0,3.4,0.4,4.9,1c1.5,0.7,2.9,1.6,4,2.7c1.1,1.1,2,2.5,2.7,4s1,3.1,1,4.9V31.6z"
	/>
<path d="M26.4,14.1h-2.5c-1.4,0-2.7,0.5-3.6,1.5c-0.9,1-1.4,2.2-1.4,3.6v5v2.5v5c0,1.4,0.5,2.6,1.4,3.6c0.9,1,2.1,1.5,3.6,1.5h2.5
	c1.3,0,2.5-0.5,3.5-1.5s1.5-2.2,1.5-3.6v-5v-2.5v-5c0-1.4-0.5-2.6-1.5-3.6S27.7,14.1,26.4,14.1z M29.8,31.7v0.5h-2.5
	c-1.1,0-2.1-0.4-2.8-1.2s-1.1-1.7-1.1-2.7V15.7h0.5h2.5c0.9,0,1.6,0.4,2.3,1c0.7,0.7,1,1.5,1,2.4h0.1V31.7z"/>
</svg>
