<?xml version="1.0" encoding="utf-8"?>
<!-- Generator: Adobe Illustrator 19.2.1, SVG Export Plug-In . SVG Version: 6.00 Build 0)  -->
<svg version="1.1" id="Capa_1" xmlns="http://www.w3.org/2000/svg" xmlns:xlink="http://www.w3.org/1999/xlink" x="0px" y="0px"
	 viewBox="0 0 290 48" style="enable-background:new 0 0 290 48;" xml:space="preserve">
<style type="text/css">
	.st0{fill:#FFFFFF;}
</style>
<path class="st0" d="M210.5,38.3V13.6v-2.5c0-1.2,0.1-2.1,0.3-2.9c0.2-0.8,0.5-1.4,0.9-1.7c0.2-0.1,0.2-0.2,0.2-0.2
	c-0.1-0.1-0.2-0.1-0.4-0.1h-26.9c-0.1,0-0.2,0-0.2,0.1c0,0.1,0,0.1,0.1,0.2c0.9,0.8,1.3,2.3,1.3,4.7v2.5v1c0,0.3,0.2,0.3,0.5,0.1
	c0.6-0.8,2.1-1.2,4.5-1.2h12.4v5v2.5h-7.5c-2.2,0-3.7-0.5-4.6-1.4c-0.2-0.2-0.3-0.2-0.3,0.2v1.2V26v2.5v1c0,0.3,0.1,0.3,0.3,0.2
	c0.8-0.8,2.3-1.2,4.6-1.2h7.5v5V36h-12.4c-2.3,0-3.8-0.5-4.5-1.4c-0.3-0.1-0.5-0.1-0.5,0.2V36v2.4c0,1.2-0.1,2.1-0.4,2.8
	c-0.2,0.7-0.6,1.3-0.9,1.6c-0.1,0.1-0.1,0.2-0.1,0.2c0,0.1,0.1,0.1,0.2,0.1H213C211.3,43.1,210.5,41.5,210.5,38.3z"/>
<path class="st0" d="M22.5,6.6c-0.2,0-0.3,0.1-0.3,0.2c0,0.1,0,0.2,0.2,0.3C22.7,7.4,23,8,23.2,8.7c0.2,0.8,0.3,1.7,0.3,2.9v5H13.4
	v-5c0-2.4,0.4-3.9,1.2-4.5c0.2-0.1,0.2-0.2,0.2-0.3c0-0.1-0.2-0.2-0.4-0.2H4.8c-0.2,0-0.3,0.1-0.4,0.2c0,0.1,0,0.2,0.2,0.3
	c0.8,0.6,1.2,2.1,1.2,4.5v7.6v4.5c0,1.5,0.2,3,0.5,4.5s0.8,3,1.4,4.5l2.9,6.7c0.4,2.3,0.3,3.8-0.4,4.6c-0.2,0.3-0.2,0.5,0.2,0.5
	h16.2c0.3,0,0.3-0.2,0.2-0.5c-0.7-0.7-0.8-2.2-0.4-4.6l2.9-6.7c0.6-1.5,1.1-3,1.4-4.5s0.5-3,0.5-4.5v-4.5v-7.6
	c0-2.4,0.4-3.9,1.2-4.5c0.2-0.1,0.2-0.2,0.2-0.3c-0.1-0.1-0.2-0.2-0.4-0.2H22.5z M23.1,26.9c-0.2,0.9-0.4,1.8-0.8,2.7l-3.9,8.9
	l-3.8-8.9c-0.3-0.9-0.6-1.7-0.8-2.7c-0.2-0.9-0.3-1.8-0.4-2.7h10.1C23.4,25.1,23.3,26,23.1,26.9z"/>
<path class="st0" d="M230.9,31.7l0.3-0.3C231,31.4,230.9,31.5,230.9,31.7z"/>
<path class="st0" d="M139.8,44c-0.8-0.6-1.2-2.2-1.2-4.7V19.2c0-1.8-0.3-3.4-1-5c-0.7-1.6-1.6-2.9-2.8-4c-1.2-1.1-2.5-2-4-2.7
	c-1.4-0.6-3-1-4.8-1c-1.7,0-3.4,0.3-4.9,1c-1.5,0.6-2.9,1.5-4,2.7c-1.1,1.1-2,2.5-2.7,4c-0.7,1.6-1,3.2-1,5v20.1
	c0,2.5-0.4,4.1-1.2,4.7c-0.2,0.1-0.3,0.2-0.2,0.2c0.1,0.1,0.2,0.1,0.4,0.1h9.7c0.2,0,0.3,0,0.4-0.1c0.1-0.1,0-0.1-0.2-0.2
	c-0.8-0.6-1.2-2.2-1.2-4.7v-7.4v-7.6v-5c0-1.5,0.5-2.7,1.4-3.7c1-1,2.2-1.5,3.6-1.5c1.5,0,2.7,0.5,3.6,1.5c1,1,1.4,2.2,1.4,3.7v5
	v7.6v7.4c0,1.3-0.1,2.3-0.4,3s-0.5,1.3-0.9,1.7c-0.2,0.1-0.2,0.2-0.2,0.2s0.2,0.1,0.4,0.1h9.6c0.2,0,0.3,0,0.4-0.1
	C140.1,44.1,140,44.1,139.8,44z"/>
<path class="st0" d="M175,14.1c-0.6-1.5-1.5-2.8-2.7-4c-1.2-1.2-2.5-2-4-2.7c-1.5-0.6-3.1-1-4.8-1H161c-1.7,0-3.3,0.3-4.9,1
	c-1.5,0.6-2.8,1.5-3.9,2.7c-1.1,1.1-2,2.5-2.6,4c-0.6,1.5-1,3.1-1,4.8v7.4h1.3h14.9h1.2c0.1,0,0.2,0,0.2-0.1c0.1-0.1,0.1-0.1,0-0.2
	c-0.4-0.4-0.8-1-1-1.8s-0.4-1.7-0.4-2.9v-2.5H160h-2h-1.8c0-0.9,0.2-1.7,0.7-2.5s1-1.4,1.8-1.8c0.4-0.2,0.8-0.4,1.2-0.5
	c0.4-0.1,0.8-0.2,1.3-0.2h2.5c1.3,0,2.5,0.5,3.5,1.5s1.5,2.2,1.5,3.5v5v2.5v5c0,1.4-0.5,2.5-1.5,3.5c-1,0.9-2.2,1.4-3.5,1.4h-2.5
	c-0.5,0-1,0-1.3-0.1c-0.3-0.1-0.8-0.2-1.2-0.4l-1-1c-0.7-1.1-0.7-2.1,0-2.9c0.1-0.3,0.1-0.5-0.2-0.5h-1.3h-7.4c0,1.7,0.3,3.3,1,4.9
	c0.6,1.5,1.5,2.8,2.6,3.9c1.1,1.1,2.4,2,3.9,2.7c1.5,0.6,3.2,1,4.9,1h2.5c1.7,0,3.3-0.3,4.8-1c1.5-0.6,2.8-1.5,4-2.6
	c1.1-1.1,2-2.4,2.7-3.9c0.6-1.5,1-3.1,1-4.8V18.9H176C176,17.2,175.7,15.6,175,14.1z"/>
<path class="st0" d="M102.7,11.7c0-2.4,0.4-3.9,1.2-4.6C104,7,104,6.9,104,6.8c0-0.1-0.1-0.2-0.3-0.2h-9.8c-0.2,0-0.3,0.1-0.3,0.2
	c0,0.1,0,0.2,0.1,0.3c0.9,0.7,1.3,2.3,1.3,4.6v7.6v2.5v4.7l-9.3-12.8c-0.3-0.5-0.6-1-0.7-1.6c-0.1-0.6-0.1-1.1,0-1.8
	c0.1-0.8,0.2-1.4,0.4-2c0.2-0.6,0.4-1,0.8-1.2c0.1-0.1,0.1-0.2,0.1-0.3c0-0.1-0.1-0.2-0.3-0.2h-9.8C76,6.5,76,6.6,76,6.7
	C76,6.9,76,7,76.1,7c0.9,0.8,1.3,2.3,1.3,4.6v27.8c0,2.3-0.5,3.8-1.4,4.5c-0.2,0.3-0.1,0.5,0.1,0.5H86c0.3,0,0.3-0.2,0.1-0.5
	c-0.8-0.6-1.2-2.1-1.2-4.5v-5v-5.1v-4l8.9,12.6c0.5,0.7,0.8,1.3,0.9,2c0.1,0.6,0.1,1.3-0.1,2.1c-0.1,0.9-0.5,1.6-1,2
	c-0.2,0.3-0.1,0.5,0.1,0.5h9.7c0.6,0,0.6-0.2,0.5-0.5c-0.8-0.6-1.2-2.1-1.2-4.5V14.2V11.7z"/>
<path class="st0" d="M66.8,39.2v-2.5v-1c0-0.2,0-0.3-0.1-0.4c-0.1-0.1-0.1-0.1-0.2,0c-0.9,0.9-2.4,1.3-4.7,1.3h-3.9v-25
	c0-2.3,0.5-3.8,1.4-4.5c0.1-0.1,0.1-0.2,0.1-0.3c0-0.1-0.1-0.2-0.3-0.2h-9.7c-0.2,0-0.3,0.1-0.3,0.2c0,0.1,0,0.2,0.1,0.3
	c0.8,0.6,1.2,2.1,1.2,4.5v2.8v9.8v8v4.5h-3.7c-2.3,0-3.9-0.4-4.7-1.3c-0.1-0.1-0.2-0.1-0.3,0c-0.1,0.1-0.1,0.2-0.1,0.4v1v2.5
	c0,2.3-0.4,3.9-1.3,4.6c-0.1,0.1-0.1,0.2-0.1,0.3c0,0.1,0.1,0.2,0.2,0.2h1.2h6.2h5h6.4h7.6H68v-0.1c0.1,0,0.2-0.1,0.2-0.2
	c0.1-0.1,0.1-0.2,0-0.3C67.3,43,66.8,41.5,66.8,39.2z"/>
<path class="st0" d="M271.6,6.7c-0.1,0.1,0,0.2,0.2,0.3c0.8,0.8,1.2,2.3,1.2,4.7v7.6h-5c-1.6,0-3.1,0.2-4.5,0.7
	c-1.3,0.5-2.6,1.3-3.9,2.5c-1.4,1.3-2.5,2.7-3.2,4.2s-1,3.2-1.1,4.8c0,1.6,0.3,3.2,0.8,4.8c0.5,1.6,1.4,3,2.5,4.2
	c1.1,1.2,2.4,2.2,4,2.9c1.6,0.7,3.3,1.1,5.2,1.1h7.6h6.1c0.2,0,0.3-0.1,0.4-0.2c0.1-0.1,0-0.2-0.2-0.3c-0.8-0.6-1.2-2.2-1.2-4.5v-28
	c0.1-2.3,0.6-3.8,1.4-4.6c0.2-0.1,0.2-0.2,0.2-0.2c-0.1-0.1-0.2-0.1-0.4-0.1h-6.1H272C271.8,6.6,271.7,6.6,271.6,6.7z M273,36.8h-5
	c-1.3,0-2.5-0.5-3.5-1.5s-1.5-2.2-1.5-3.5c0-1.4,0.5-2.6,1.5-3.6s2.2-1.5,3.5-1.5h5V36.8z"/>
<path class="st0" d="M246.3,43.2c-0.7-0.7-1.1-2.2-1.1-4.5V11.4c0-2.3,0.4-3.8,1.1-4.4c0.2-0.1,0.3-0.2,0.2-0.3
	c-0.1-0.1-0.2-0.2-0.4-0.2h-5.9H238h-1.2c-0.1,0-0.2,0.1-0.2,0.2c0,0.1,0,0.2,0.2,0.3c0.3,0.3,0.6,0.9,0.8,1.6
	c0.2,0.7,0.3,1.7,0.3,2.8v2.5v5v3.8h-1.4c-1,0-2-0.2-2.9-0.6c-0.9-0.4-1.7-0.9-2.4-1.6c-0.7-0.7-1.2-1.5-1.6-2.4
	c-0.4-0.9-0.6-1.9-0.6-2.9v-1.3v-2.5c0-2.2,0.5-3.7,1.4-4.4c0.1-0.1,0.1-0.2,0.1-0.3c0-0.1-0.1-0.2-0.3-0.2h-9.5
	c-0.2,0-0.3,0.1-0.3,0.2c0,0.1,0,0.2,0.1,0.3c0.8,0.6,1.2,2.1,1.2,4.4v2.5v1.3c0,2,0.3,3.8,0.9,5.3c0.6,1.5,1.6,3,2.9,4.5
	c-1.2,1-2.1,2.2-2.8,3.6c-0.7,1.4-1,2.9-1,4.5c0,1.4,0.3,2.8,0.8,4.1c0.6,1.3,1.3,2.4,2.3,3.4c1,0.9,2.1,1.7,3.4,2.3
	c1.3,0.6,2.7,0.8,4.2,0.8h7.9h5.9C246.6,43.7,246.7,43.5,246.3,43.2z M237.9,35.9v0.3h-5.5c-0.9,0-1.7-0.3-2.3-0.9
	c-0.7-0.6-1-1.3-1-2.2c0-0.9,0.3-1.7,1-2.3c0.7-0.6,1.4-0.9,2.3-0.9h5.5V35.9z"/>
<path class="st0" d="M236.3,31.7h-1c0.2,0,0.3,0.1,0.5,0.1L236.3,31.7z"/>
<path d="M270.6,5h-1.5c0.7,1.2,1.3,2.4,1.7,3.5c0.4,1.2,0.6,2.2,0.6,3.2v3.1c-1.8,0-3.4,0.2-4.9,0.7c-1.4,0.5-2.9,1.4-4.3,2.8
	l-0.5,0.3l-1,0.8l-2.2,1.8c-1.5,1.4-2.7,3.1-3.5,4.9c-0.8,1.8-1.2,3.6-1.2,5.5c0,1.8,0.3,3.6,1,5.3c0.6,1.8,1.6,3.3,2.8,4.7
	c1.3,1.4,2.8,2.5,4.5,3.3c1.7,0.9,3.7,1.3,5.9,1.3h13.5c0.6,0,1.1-0.2,1.5-0.6c0.4-0.5,0.6-0.9,0.6-1.4l2.2-2.2c0-0.1,0-0.2,0.1-0.2
	c0.2-0.4,0.4-0.8,0.4-1.2c0.1-0.5-0.2-0.8-0.7-1c-0.2-0.2-0.3-0.6-0.4-1.2c-0.1-0.6-0.1-1.4-0.1-2.4V5.3l1.6-3.2h-13.2L270.6,5z
	 M281.7,6.6c0.2,0,0.3,0,0.4,0.1c0,0,0,0.1-0.2,0.2c-0.8,0.8-1.3,2.3-1.4,4.6v28c0,2.3,0.4,3.9,1.2,4.5c0.2,0.1,0.3,0.2,0.2,0.3
	c-0.1,0.1-0.2,0.2-0.4,0.2h-6.1h-7.6c-1.9,0-3.6-0.4-5.2-1.1c-1.6-0.7-2.9-1.7-4-2.9c-1.1-1.2-2-2.6-2.5-4.2
	c-0.5-1.6-0.8-3.2-0.8-4.8c0.1-1.6,0.4-3.3,1.1-4.8s1.8-2.9,3.2-4.2c1.3-1.2,2.6-2,3.9-2.5c1.4-0.5,2.9-0.7,4.5-0.7h5v-7.6
	c0-2.4-0.4-3.9-1.2-4.7c-0.2-0.1-0.3-0.2-0.2-0.3c0.1-0.1,0.2-0.1,0.4-0.1h3.6H281.7z"/>
<path d="M264.5,28.2c-1,1-1.5,2.2-1.5,3.6c0,1.3,0.5,2.5,1.5,3.5s2.2,1.5,3.5,1.5h5V26.7h-5C266.7,26.7,265.5,27.2,264.5,28.2z
	 M271.4,28.4v3.9c-1,0-1.9-0.4-2.7-1.2c-0.8-0.8-1.2-1.7-1.2-2.7h0.5h3.3H271.4z"/>
<polygon points="286.7,2.1 286.7,2 286.7,2.1 "/>
<path d="M250.3,38.1c-0.3-0.7-0.4-1.6-0.4-2.7V8.1c0-0.7,0-1.3,0-1.8s0.1-1,0.3-1.3l0.4-0.7c0.5-0.5,0.6-1,0.4-1.6
	c-0.2-0.6-0.7-0.9-1.4-0.9H238l-2.8,2.8h-1c0.1-0.1,0.2-0.1,0.2-0.2c0.1-0.1,0.1-0.1,0.2-0.1l0.7-0.6c0.4-0.4,0.4-0.8,0.1-1.2
	s-0.9-0.6-1.8-0.6H224c-0.4,0-0.7,0-1,0.1c-0.3,0.1-0.5,0.2-0.7,0.4l-2.5,2.3c-0.8,0.2-1.3,0.5-1.5,1.1c-0.2,0.6-0.1,1.1,0.4,1.6
	c0.4,0.5,0.7,1,0.9,1.6c0.3,0.6,0.4,1.4,0.4,2.4h-0.1v3.9c0,1.9,0.3,3.7,0.8,5.2s1.3,3,2.4,4.4c-0.9,1.1-1.7,2.4-2.3,3.8
	c-0.6,1.4-0.9,2.9-0.9,4.5c0,1.7,0.3,3.3,1,4.8s1.6,2.8,2.7,3.9c1.1,1.1,2.4,2,3.9,2.6c1.6,0.7,3.2,1,4.9,1h13.9
	c1,0,1.8-0.2,2.3-0.5s0.7-0.8,0.4-1.4l2.7-2.5c0.4-0.5,0.3-0.9-0.3-1.4C250.9,39.3,250.6,38.8,250.3,38.1z M233.6,8.2
	c0-1.2,0.2-2.1,0.5-2.8c0.7,1.1,1.2,2.3,1.6,3.2c0.4,0.9,0.6,1.9,0.6,2.8V17c-0.9-0.6-1.5-1.4-2-2.3c-0.5-0.9-0.7-1.8-0.7-2.8h0V8.2
	z M246.2,43.7h-5.9h-7.9c-1.5,0-2.9-0.2-4.2-0.8c-1.3-0.6-2.4-1.4-3.4-2.3c-1-1-1.7-2.1-2.3-3.4c-0.5-1.3-0.8-2.7-0.8-4.1
	c0-1.6,0.3-3.1,1-4.5c0.7-1.4,1.6-2.6,2.8-3.6c-1.3-1.5-2.3-3-2.9-4.5c-0.6-1.5-0.9-3.3-0.9-5.3v-1.3v-2.5c0-2.3-0.4-3.8-1.2-4.4
	c-0.1-0.1-0.1-0.2-0.1-0.3c0-0.1,0.1-0.2,0.3-0.2h9.5c0.2,0,0.3,0.1,0.3,0.2c0,0.1,0,0.2-0.1,0.3c-0.9,0.7-1.4,2.2-1.4,4.4v2.5v1.3
	c0,1,0.2,2,0.6,2.9c0.4,0.9,0.9,1.7,1.6,2.4c0.7,0.7,1.5,1.2,2.4,1.6c0.9,0.4,1.9,0.6,2.9,0.6h1.4v-3.8v-5v-2.5
	c0-1.1-0.1-2.1-0.3-2.8c-0.2-0.7-0.5-1.3-0.8-1.6c-0.2-0.1-0.2-0.2-0.2-0.3c0-0.1,0.1-0.2,0.2-0.2h1.2h2.2h5.9
	c0.2,0,0.3,0.1,0.4,0.2c0.1,0.1,0,0.2-0.2,0.3c-0.7,0.6-1.1,2.1-1.1,4.4v27.3c0,2.3,0.4,3.8,1.1,4.5
	C246.7,43.5,246.6,43.7,246.2,43.7z"/>
<path d="M230.1,30.8c-0.7,0.6-1,1.4-1,2.3c0,0.9,0.3,1.6,1,2.2c0.6,0.6,1.4,0.9,2.3,0.9h5.5v-0.3v-6h-5.5
	C231.5,29.9,230.8,30.2,230.1,30.8z M230.9,31.7c0-0.2,0.1-0.3,0.3-0.3L230.9,31.7z M234.8,31.6c0.2,0,0.3,0,0.5,0.1h1l-0.5,0.1
	c-0.2,0-0.3-0.1-0.5-0.1h-0.5V31.6z"/>
<path d="M234.8,31.6v0.1h0.5C235.1,31.6,235,31.6,234.8,31.6z"/>
<path d="M216.9,2.1H186l-2.8,2.5h-1c0.7,1.1,1.2,2.2,1.6,3.3c0.3,1.1,0.5,2.2,0.5,3.3v3.5c0,0.8,0.1,1.3,0.2,1.7
	c0.1,0.3,0.3,0.5,0.5,0.6s0.5,0,0.9-0.1c0.4-0.1,0.8-0.3,1.4-0.6c0.2-0.4,0.7-0.6,1.3-0.8c0.6-0.2,1.4-0.3,2.3-0.3h0.8l-1.4,1.4
	l-0.6-0.6l-0.3,5.3v9.1c-0.2,0-0.3,0-0.4,0.1c-0.1,0.1-0.3,0.1-0.5,0.1l-2.3,2.4c-1.3-0.1-1.9,0.5-1.9,2v3.6c-0.1,1-0.2,2.1-0.5,3.3
	c-0.3,1.2-0.8,2.1-1.4,2.8l31.4,0.3v-1l2.8-2.8v-2.3c-0.9,0-1.3-1.2-1.3-3.6V5.7L216.9,2.1z M184.6,43.1c-0.1,0-0.2,0-0.2-0.1
	c0,0,0-0.1,0.1-0.2c0.3-0.3,0.7-0.9,0.9-1.6c0.3-0.7,0.4-1.6,0.4-2.8V36v-1.2c0-0.3,0.2-0.3,0.5-0.2c0.7,0.9,2.2,1.4,4.5,1.4h12.4
	v-2.5v-5h-7.5c-2.3,0-3.8,0.4-4.6,1.2c-0.2,0.1-0.3,0.1-0.3-0.2v-1V26v-4.9v-1.2c0-0.4,0.1-0.4,0.3-0.2c0.9,0.9,2.4,1.4,4.6,1.4h7.5
	v-2.5v-5h-12.4c-2.4,0-3.9,0.4-4.5,1.2c-0.3,0.2-0.5,0.2-0.5-0.1v-1v-2.5c0-2.4-0.4-3.9-1.3-4.7c-0.1-0.1-0.1-0.1-0.1-0.2
	c0-0.1,0.1-0.1,0.2-0.1h26.9c0.2,0,0.3,0,0.4,0.1c0,0,0,0.1-0.2,0.2c-0.4,0.3-0.7,0.9-0.9,1.7c-0.2,0.8-0.3,1.7-0.3,2.9v2.5v24.7
	c0,3.2,0.8,4.8,2.5,4.8H184.6z M191.6,31.2c1.5-0.7,2.8-1,4-1h5.8v1.3H194c-0.4,0-0.9,0-1.3,0S191.9,31.4,191.6,31.2z M195.3,15.3
	h6.3v1.4h-2.5C198,16.7,196.7,16.2,195.3,15.3z"/>
<path d="M176.5,6c-1.2-1.2-2.6-2.2-4.3-2.9c-1.7-0.7-3.4-1.1-5.3-1.1V1.9h-2.6c-1.9,0-3.7,0.3-5.3,1c-1.6,0.7-3,1.6-4.3,2.9
	l-0.6,0.7c-2.2,1.2-3.9,2.8-5.2,5c-1.3,2.2-1.9,4.6-1.9,7.3v9.1h2.7l-1.7,1.7h-1c0,2.2,0.4,4.3,1.1,6.2c0.8,1.9,1.7,3.6,3,5
	c1.3,1.4,2.8,2.5,4.5,3.3c1.8,0.8,3.6,1.2,5.6,1.2h2.5c2.7,0,5.1-0.6,7.3-1.9c2.1-1.3,3.8-3,4.9-5.2l0.6-0.6
	c1.2-1.2,2.2-2.7,2.9-4.3c0.7-1.6,1.1-3.4,1.1-5.3V15.6c0-1.9-0.4-3.6-1.1-5.3C178.7,8.7,177.7,7.2,176.5,6z M176.2,31.5
	c0,1.7-0.4,3.3-1,4.8c-0.7,1.5-1.6,2.8-2.7,3.9c-1.2,1.1-2.5,2-4,2.6c-1.5,0.7-3.1,1-4.8,1h-2.5c-1.7,0-3.4-0.4-4.9-1
	c-1.5-0.7-2.8-1.6-3.9-2.7c-1.1-1.1-2-2.4-2.6-3.9c-0.7-1.6-1-3.2-1-4.9h7.4h1.3c0.3,0,0.3,0.2,0.2,0.5c-0.7,0.8-0.7,1.8,0,2.9l1,1
	c0.4,0.2,0.9,0.3,1.2,0.4c0.3,0.1,0.8,0.1,1.3,0.1h2.5c1.3,0,2.5-0.5,3.5-1.4c1-1,1.5-2.1,1.5-3.5v-5v-2.5v-5c0-1.3-0.5-2.5-1.5-3.5
	s-2.2-1.5-3.5-1.5h-2.5c-0.5,0-0.9,0.1-1.3,0.2c-0.4,0.1-0.8,0.3-1.2,0.5c-0.8,0.4-1.3,1-1.8,1.8s-0.7,1.6-0.7,2.5h1.8h2h4.8v2.5
	c0,1.2,0.2,2.1,0.4,2.9s0.6,1.4,1,1.8c0.1,0.1,0.1,0.1,0,0.2c0,0.1-0.1,0.1-0.2,0.1h-1.2h-14.9h-1.3v-7.4c0-1.7,0.4-3.3,1-4.8
	c0.6-1.5,1.5-2.9,2.6-4c1.1-1.2,2.4-2.1,3.9-2.7c1.6-0.7,3.2-1,4.9-1h2.5c1.7,0,3.3,0.4,4.8,1c1.5,0.7,2.8,1.5,4,2.7
	c1.2,1.2,2.1,2.5,2.7,4c0.7,1.5,1,3.1,1,4.8h0.2V31.5z M161.7,30c0-0.3,0-0.6,0.1-0.8l0.1-0.1c0.1-0.2,0.2-0.3,0.2-0.5
	c0-0.2,0-0.4,0-0.6h4.8v3.5V32h-2.5c-0.4,0-0.8,0-1.1-0.1c-0.4-0.1-0.6-0.2-0.9-0.3l-0.6-0.8C161.7,30.6,161.7,30.3,161.7,30z"/>
<path d="M143.6,39.2c-0.3-1-0.5-2-0.5-3.2V15.9c0-1.9-0.4-3.7-1.1-5.4c-0.8-1.7-1.7-3.1-3-4.4c-1.3-1.2-2.8-2.2-4.4-2.9
	c-1.6-0.7-3.4-1.1-5.3-1.1c-1.9,0-3.7,0.4-5.4,1.1c-1.6,0.8-3.1,1.7-4.4,3l-0.6,0.6c-2.1,1.2-3.8,2.8-5.2,5c-1.3,2.2-2,4.7-2,7.5
	h-0.1v20c0.1,0.7,0.1,1.6-0.1,2.6s-0.7,2.3-1.6,3.8l15,0.3l-0.5-0.8l3-3c-0.7-1-1.2-2-1.5-3c-0.3-1-0.5-2-0.5-3.2V15.9h0.5
	c0.9,0,1.7,0.3,2.4,1c0.7,0.6,1,1.5,1,2.4v20c0,1-0.3,2.1-1,3.2s-1.5,2.2-2.5,3.2l16.9,0.3l-0.5-0.8l3-3
	C144.5,41.2,143.9,40.2,143.6,39.2z M140,44.2c-0.1,0.1-0.2,0.1-0.4,0.1H130c-0.2,0-0.4-0.1-0.4-0.1s0-0.1,0.2-0.2
	c0.4-0.4,0.6-1,0.9-1.7s0.4-1.7,0.4-3v-7.4v-7.6v-5c0-1.5-0.4-2.7-1.4-3.7c-0.9-1-2.1-1.5-3.6-1.5c-1.4,0-2.6,0.5-3.6,1.5
	c-0.9,1-1.4,2.2-1.4,3.7v5v7.6v7.4c0,2.5,0.4,4.1,1.2,4.7c0.2,0.1,0.3,0.1,0.2,0.2c-0.1,0.1-0.2,0.1-0.4,0.1h-9.7
	c-0.2,0-0.3,0-0.4-0.1c-0.1,0,0-0.1,0.2-0.2c0.8-0.6,1.2-2.2,1.2-4.7V19.2c0-1.8,0.3-3.4,1-5c0.7-1.5,1.6-2.9,2.7-4
	c1.1-1.2,2.5-2.1,4-2.7c1.5-0.7,3.2-1,4.9-1c1.8,0,3.4,0.4,4.8,1c1.5,0.7,2.8,1.6,4,2.7c1.2,1.1,2.1,2.4,2.8,4c0.7,1.6,1,3.2,1,5
	v20.1c0,2.5,0.4,4.1,1.2,4.7C140,44.1,140.1,44.1,140,44.2z"/>
<path d="M107,2h-9.7c-0.4,0-0.7,0-1.1,0.1c-0.3,0.1-0.5,0.2-0.7,0.4L93,4.8c-0.7,0.2-1.2,0.6-1.5,1.1c-0.2,0.6-0.1,1.1,0.4,1.6
	c0.5,0.4,0.8,0.9,1.1,1.6c0.3,0.7,0.4,1.6,0.4,2.5v2.2l-3.2-4.3c-0.1-0.3-0.3-0.7-0.5-1.2s-0.3-1-0.2-1.3c0.1-0.5,0.2-0.9,0.2-1.3
	c0-0.4,0.1-0.7,0.3-0.9l0.1-0.1c0.2-0.2,0.4-0.5,0.5-0.8c0.1-0.3,0.1-0.6,0.1-0.9c-0.1-0.3-0.2-0.5-0.4-0.7S89.8,2,89.3,2h-9.7
	c-0.7,0-1.3,0.2-1.7,0.5l-2.5,2.3c-0.7,0.2-1.2,0.6-1.5,1.1c-0.3,0.6-0.2,1.1,0.3,1.6c0.5,0.4,0.8,0.9,1.1,1.6
	c0.3,0.7,0.4,1.6,0.4,2.5v27.9c0,1.8-0.4,3-1.2,3.7c-0.2,0.5-0.4,1-0.6,1.4c-0.2,0.4-0.2,0.7-0.1,0.9c0.1,0.2,0.3,0.4,0.7,0.5
	s0.9,0.2,1.7,0.2H86c1.5,0,2.1-0.6,2-1.8l2.5-2.4c0.3-0.3,0.3-1,0-2c-0.7-0.6-1-1.9-1-3.9v-1.2l3,4c0.2,0.4,0.3,0.8,0.4,1.3
	c0.1,0.5,0.1,1,0.1,1.3l-0.5,1c-0.3,0.7-0.6,1.2-0.8,1.7c-0.2,0.4-0.3,0.8-0.2,1.1c0,0.3,0.2,0.6,0.6,0.7c0.4,0.1,0.9,0.2,1.7,0.2
	h9.8c1.5,0,2.2-0.6,2.1-1.8l2.5-2.4c0.3-0.3,0.3-1,0-2c-0.7-0.5-1-1.8-1-3.9V8.2c0-1.7,0.2-2.9,0.7-3.7l0.8-0.6
	c0.3-0.3,0.4-0.7,0.1-1.2C108.6,2.2,107.9,2,107,2z M103.9,44c0.1,0.3,0.1,0.5-0.5,0.5h-9.7c-0.2,0-0.3-0.2-0.1-0.5
	c0.5-0.4,0.9-1.1,1-2c0.2-0.8,0.2-1.5,0.1-2.1c-0.1-0.7-0.4-1.3-0.9-2l-8.9-12.6v4v5.1v5c0,2.4,0.4,3.9,1.2,4.5
	c0.2,0.3,0.2,0.5-0.1,0.5h-9.9c-0.2,0-0.3-0.2-0.1-0.5c0.9-0.7,1.4-2.2,1.4-4.5V11.6c0-2.3-0.4-3.8-1.3-4.6C76,7,76,6.9,76,6.7
	c0-0.1,0-0.2,0.2-0.1H86c0.2,0,0.3,0.1,0.3,0.2c0,0.1,0,0.2-0.1,0.3c-0.4,0.2-0.6,0.6-0.8,1.2c-0.2,0.6-0.3,1.2-0.4,2
	c-0.1,0.7-0.1,1.2,0,1.8c0.1,0.6,0.4,1.1,0.7,1.6L95,26.5v-4.7v-2.5v-7.6c0-2.3-0.4-3.9-1.3-4.6c-0.1-0.1-0.1-0.2-0.1-0.3
	c0-0.1,0.1-0.2,0.3-0.2h9.8c0.2,0,0.3,0.1,0.3,0.2c0,0.1,0,0.2-0.1,0.3c-0.8,0.7-1.2,2.2-1.2,4.6v2.5v25.3
	C102.7,41.9,103.1,43.4,103.9,44z"/>
<path d="M71.4,38.6c0-0.8,0-1.7,0-2.7h-0.1v-5.2c-0.9,0.3-1.8,0.7-2.9,1c-1,0.3-2.1,0.5-3.3,0.5h-2.7v-24c0-0.9,0.1-1.6,0.3-2.2
	c0.2-0.5,0.4-1,0.8-1.5c0-0.3,0.1-0.4,0.3-0.4l0.3-0.3c0.3-0.4,0.4-0.8,0.1-1.2C64,2.2,63.3,2,62.4,2h-9.7c-0.8,0-1.3,0.2-1.7,0.5
	l-2.5,2.3c-0.8,0.2-1.3,0.5-1.6,1.1c-0.2,0.6-0.1,1.1,0.4,1.6c0.5,0.4,0.8,1,1,1.6c0.2,0.7,0.3,1.5,0.3,2.5v20.3
	c-0.9-0.2-1.7-0.5-2.4-1c-0.7-0.4-1.4-1-2.1-1.7l-3,3l-0.8-0.8l-0.4,5.4v2.5c0,0.9-0.1,1.7-0.4,2.4s-0.7,1.3-1.1,1.7
	c-0.3,0.2-0.4,0.5-0.3,0.8c0.1,0.3,0.2,0.5,0.5,0.8c0.3,0.3,0.6,0.5,0.9,0.7c0.4,0.2,0.7,0.3,1,0.3H68c0.5,0,1-0.2,1.6-0.7
	c0.5-0.5,0.7-0.9,0.6-1.4l1.7-2.4c0.2-0.2,0.3-0.4,0.4-0.6c0.1-0.2,0.1-0.4-0.1-0.6C71.7,39.9,71.4,39.3,71.4,38.6z M68.2,44.1
	c0,0.1-0.1,0.2-0.2,0.2v0.1h-1.2h-7.6h-6.4h-5h-6.2h-1.2c-0.1,0-0.2-0.1-0.2-0.2c0-0.1,0-0.2,0.1-0.3c0.9-0.7,1.3-2.3,1.3-4.6v-2.5
	v-1c0-0.2,0-0.3,0.1-0.4c0.1-0.1,0.2-0.1,0.3,0c0.8,0.9,2.4,1.3,4.7,1.3h3.7v-4.5v-8v-9.8v-2.8c0-2.4-0.4-3.9-1.2-4.5
	c-0.1-0.1-0.1-0.2-0.1-0.3c0-0.1,0.1-0.2,0.3-0.2h9.7c0.2,0,0.3,0.1,0.3,0.2c0,0.1,0,0.2-0.1,0.3c-0.9,0.7-1.4,2.2-1.4,4.5v25h3.9
	c2.3,0,3.8-0.4,4.7-1.3c0.1-0.1,0.1-0.1,0.2,0c0.1,0.1,0.1,0.2,0.1,0.4v1v2.5c0,2.3,0.5,3.8,1.4,4.6C68.3,43.9,68.3,44,68.2,44.1z"
	/>
<path d="M35.5,2h-9.6c-0.7,0-1.2,0.1-1.5,0.6L22.1,5c-0.8,0.2-1.4,0.7-1.6,1.5c-0.2,0.7,0.1,1.4,0.9,2c0.3,0.4,0.5,1.4,0.5,3.2v0.5
	H18V8.3c0-0.7,0-1.3,0.1-1.9c0-0.6,0.1-1.1,0.2-1.4l0.5-0.5c0.5-0.4,0.7-1,0.4-1.6C19,2.3,18.5,2,17.8,2H8.2C7.7,2,7.3,2.1,7.1,2.4
	L4.8,4.8C4.3,4.8,3.9,5,3.5,5.3c-0.3,0.3-0.6,0.6-0.7,1c-0.2,0.4-0.2,0.8,0,1.2s0.5,0.7,1,1V8.4C4,8.5,4,8.8,4.1,9.4
	c0,0.5,0,1.3,0,2.2v12c0,1.7,0.1,3.4,0.5,5c0.3,1.7,0.8,3.2,1.3,4.7c0.4,1,0.8,2.1,1.4,3.3C7.9,37.8,8.4,39,8.8,40
	c0.1,0.6,0.3,1.2,0.3,1.7c0.1,0.6,0,0.9-0.3,1.2C8.2,44.2,8,45,8,45.5c0.1,0.5,0.9,0.7,2.4,0.7v0.1h16.2c0.7,0,1.2-0.2,1.5-0.5
	c0.3-0.3,0.5-0.7,0.5-1.2l2.5-2.5c0.4-0.6,0.4-1.3-0.1-2.2c-0.2-0.3-0.4-0.7-0.4-1.2s0-1.2,0.2-1.9l0.2-0.2c0.4-1,0.8-2.1,1.4-3.4
	c0.6-1.3,1.1-2.4,1.5-3.4c0.5-1.4,0.9-3,1.3-4.6c0.3-1.6,0.5-3.2,0.5-4.8V8.2c0-1.3,0.1-2.4,0.3-3.2l0.5-0.5c0.5-0.4,0.7-1,0.4-1.6
	C36.7,2.3,36.2,2,35.5,2z M32.4,7.1c-0.8,0.6-1.2,2.1-1.2,4.5v7.6v4.5c0,1.5-0.2,3-0.5,4.5s-0.8,3-1.4,4.5l-2.9,6.7
	c-0.4,2.4-0.3,3.9,0.4,4.6c0.1,0.3,0.1,0.5-0.2,0.5H10.4c-0.4,0-0.4-0.2-0.2-0.5c0.7-0.8,0.8-2.3,0.4-4.6l-2.9-6.7
	c-0.6-1.5-1.1-3-1.4-4.5s-0.5-3-0.5-4.5v-4.5v-7.6c0-2.4-0.4-3.9-1.2-4.5C4.4,7,4.4,6.9,4.4,6.8c0.1-0.1,0.2-0.2,0.4-0.2h9.6
	c0.2,0,0.4,0.1,0.4,0.2c0,0.1,0,0.2-0.2,0.3c-0.8,0.6-1.2,2.1-1.2,4.5v5h10.1v-5c0-1.2-0.1-2.1-0.3-2.9C23,8,22.7,7.4,22.4,7.1
	c-0.2-0.1-0.2-0.2-0.2-0.3c0-0.1,0.1-0.2,0.3-0.2h9.7c0.2,0,0.3,0.1,0.4,0.2C32.6,6.9,32.6,7,32.4,7.1z"/>
<path d="M13.8,26.9c0.2,1,0.5,1.8,0.8,2.7l3.8,8.9l3.9-8.9c0.4-0.9,0.6-1.8,0.8-2.7c0.2-0.9,0.3-1.8,0.4-2.7H13.4
	C13.5,25.1,13.6,26,13.8,26.9z M21.6,25.9c-0.1,0.5-0.2,1-0.3,1.6c-0.1,0.6-0.3,1.1-0.5,1.5l-0.1,0.3c-0.3-0.6-0.5-1.1-0.8-1.6
	c-0.3-0.5-0.5-1.1-0.8-1.8H21.6z"/>
</svg>
