<?xml version="1.0" encoding="utf-8"?>
<!-- Generator: Adobe Illustrator 19.2.1, SVG Export Plug-In . SVG Version: 6.00 Build 0)  -->
<svg version="1.1" id="Capa_1" xmlns="http://www.w3.org/2000/svg" xmlns:xlink="http://www.w3.org/1999/xlink" x="0px" y="0px"
	 viewBox="0 0 290 48" style="enable-background:new 0 0 290 48;" xml:space="preserve">
<style type="text/css">
	.st0{fill:#FFFFFF;}
</style>
<path class="st0" d="M199.7,31.7h-1c0.2,0,0.3,0.1,0.5,0.1L199.7,31.7z"/>
<path class="st0" d="M194.2,31.7l0.3-0.3C194.3,31.4,194.2,31.5,194.2,31.7z"/>
<path class="st0" d="M209.7,43.2c-0.7-0.7-1.1-2.2-1.1-4.5V11.4c0-2.3,0.4-3.8,1.1-4.4c0.2-0.1,0.3-0.2,0.2-0.3
	c-0.1-0.1-0.2-0.2-0.4-0.2h-5.9h-2.4H200c-0.1,0-0.2,0.1-0.2,0.2c0,0.1,0,0.2,0.2,0.3c0.3,0.3,0.6,0.9,0.8,1.6
	c0.2,0.7,0.3,1.7,0.3,2.8v2.5v5v3.8H200c-1,0-2-0.2-2.9-0.6c-0.9-0.4-1.7-0.9-2.4-1.6s-1.2-1.5-1.6-2.4c-0.4-0.9-0.6-1.9-0.6-2.9
	v-1.3v-2.5c0-2.2,0.5-3.7,1.4-4.4c0.1-0.1,0.1-0.2,0.1-0.3c0-0.1-0.1-0.2-0.3-0.2h-9.6c-0.2,0-0.3,0.1-0.3,0.2c0,0.1,0,0.2,0.1,0.3
	c0.8,0.6,1.2,2.1,1.2,4.4v2.5v1.3c0,2,0.3,3.8,0.9,5.3c0.6,1.5,1.6,3,2.9,4.5c-1.2,1-2.1,2.2-2.8,3.6c-0.7,1.4-1,2.9-1,4.5
	c0,1.4,0.3,2.8,0.8,4.1c0.6,1.3,1.3,2.4,2.3,3.4c1,0.9,2.1,1.7,3.4,2.3c1.3,0.6,2.7,0.8,4.2,0.8h7.9h5.9
	C210,43.7,210.1,43.5,209.7,43.2z M201.3,35.9v0.3h-5.5c-0.9,0-1.7-0.3-2.3-0.9c-0.7-0.6-1-1.3-1-2.2c0-0.9,0.3-1.7,1-2.3
	c0.7-0.6,1.4-0.9,2.3-0.9h5.5V35.9z"/>
<path d="M198.2,31.6v0.1h0.5C198.5,31.6,198.4,31.6,198.2,31.6z"/>
<path d="M193.5,30.8c-0.7,0.6-1,1.4-1,2.3c0,0.9,0.3,1.6,1,2.2c0.6,0.6,1.4,0.9,2.3,0.9h5.5v-0.3v-6h-5.5
	C194.9,29.9,194.2,30.2,193.5,30.8z M194.2,31.7c0-0.2,0.1-0.3,0.3-0.3L194.2,31.7z M198.2,31.6c0.2,0,0.3,0,0.5,0.1h1l-0.5,0.1
	c-0.2,0-0.3-0.1-0.5-0.1h-0.5V31.6z"/>
<path d="M213.7,38.1c-0.3-0.7-0.4-1.6-0.4-2.7V8.1c0-0.7,0-1.3,0-1.8s0.1-1,0.3-1.3l0.4-0.5c0.5-0.5,0.6-1,0.4-1.6
	C214.2,2.3,213.7,2,213,2h-11.6l-2.8,2.8h-1c0.1-0.1,0.2-0.1,0.2-0.2c0.1-0.1,0.1-0.1,0.2-0.1l0.7-0.8c0.3-0.4,0.4-0.8,0.1-1.2
	c-0.3-0.4-0.9-0.6-1.8-0.6h-9.6c-0.4,0-0.7,0-1,0.1s-0.5,0.2-0.7,0.4l-2.5,2.3c-0.8,0.2-1.3,0.5-1.5,1.1c-0.2,0.6-0.1,1.1,0.4,1.6
	c0.3,0.5,0.7,1,0.9,1.6c0.3,0.6,0.4,1.4,0.4,2.4h-0.1v3.9c0,1.9,0.3,3.7,0.8,5.2s1.3,3,2.4,4.4c-0.9,1.1-1.7,2.4-2.3,3.8
	c-0.6,1.4-0.9,2.9-0.9,4.5c0,1.7,0.4,3.3,1,4.8c0.7,1.5,1.6,2.8,2.7,3.9c1.1,1.1,2.4,2,3.9,2.6c1.6,0.7,3.2,1,4.9,1h13.9
	c1,0,1.8-0.2,2.3-0.5s0.7-0.8,0.4-1.4l2.7-2.5c0.4-0.5,0.3-0.9-0.3-1.4C214.3,39.3,214,38.8,213.7,38.1z M197,8.1
	c0-1.2,0.2-2.1,0.5-2.7c0.7,1.1,1.2,2.2,1.6,3.2c0.4,0.9,0.6,1.9,0.6,2.8V17c-0.9-0.6-1.5-1.4-2-2.3c-0.5-0.9-0.7-1.8-0.7-2.8V8.1z
	 M209.6,43.7h-5.9h-7.9c-1.5,0-2.9-0.2-4.2-0.8c-1.3-0.6-2.4-1.4-3.4-2.3c-1-1-1.7-2.1-2.3-3.4c-0.5-1.3-0.8-2.7-0.8-4.1
	c0-1.6,0.3-3.1,1-4.5c0.7-1.4,1.6-2.6,2.8-3.6c-1.3-1.5-2.3-3-2.9-4.5c-0.6-1.5-0.9-3.3-0.9-5.3v-1.3v-2.5c0-2.3-0.4-3.8-1.2-4.4
	c-0.1-0.1-0.1-0.2-0.1-0.3c0-0.1,0.1-0.2,0.3-0.2h9.6c0.2,0,0.3,0.1,0.3,0.2c0,0.1,0,0.2-0.1,0.3c-0.9,0.7-1.4,2.2-1.4,4.4v2.5v1.3
	c0,1,0.2,2,0.6,2.9c0.4,0.9,0.9,1.7,1.6,2.4s1.5,1.2,2.4,1.6c0.9,0.4,1.9,0.6,2.9,0.6h1.1v-3.8v-5v-2.5c0-1.1-0.1-2.1-0.3-2.8
	c-0.2-0.7-0.5-1.3-0.8-1.6c-0.2-0.1-0.2-0.2-0.2-0.3c0-0.1,0.1-0.2,0.2-0.2h1.2h2.4h5.9c0.2,0,0.3,0.1,0.4,0.2
	c0.1,0.1,0,0.2-0.2,0.3c-0.7,0.6-1.1,2.1-1.1,4.4v27.3c0,2.3,0.4,3.8,1.1,4.5C210.1,43.5,210,43.7,209.6,43.7z"/>
<path class="st0" d="M173.9,38.3V13.6v-2.5c0-1.2,0.1-2.1,0.3-2.9s0.5-1.4,0.9-1.7c0.2-0.1,0.2-0.2,0.2-0.2
	c-0.1-0.1-0.2-0.1-0.4-0.1H148c-0.1,0-0.2,0-0.2,0.1c0,0.1,0,0.1,0.1,0.2c0.9,0.8,1.3,2.3,1.3,4.7v2.5v1c0,0.3,0.2,0.3,0.5,0.1
	c0.6-0.8,2.1-1.2,4.5-1.2h12.4v5v2.5h-7.5c-2.2,0-3.7-0.5-4.6-1.4c-0.2-0.2-0.3-0.2-0.3,0.2v1.2V26v2.5v1c0,0.3,0.1,0.3,0.3,0.2
	c0.8-0.8,2.3-1.2,4.6-1.2h7.5v5V36h-12.4c-2.3,0-3.8-0.5-4.5-1.4c-0.3-0.1-0.5-0.1-0.5,0.2V36v2.4c0,1.2-0.1,2.1-0.4,2.8
	c-0.2,0.7-0.6,1.3-0.9,1.6c-0.1,0.1-0.1,0.2-0.1,0.2c0,0.1,0.1,0.1,0.2,0.1h28.4C174.7,43.1,173.9,41.5,173.9,38.3z"/>
<path d="M180.2,2.1h-30.9l-2.8,2.5h-1c0.7,1.1,1.2,2.2,1.6,3.3c0.4,1.1,0.6,2.2,0.6,3.3v3.5c0,0.8,0.1,1.3,0.2,1.7
	c0.1,0.3,0.3,0.5,0.5,0.6c0.2,0.1,0.5,0,0.9-0.1c0.4-0.1,0.8-0.3,1.4-0.6c0.2-0.4,0.7-0.6,1.3-0.8c0.6-0.2,1.4-0.3,2.3-0.3h0.8
	l-1.4,1.4L153,16l-0.3,5.3v9.1c-0.2,0-0.3,0-0.4,0.1c-0.1,0.1-0.3,0.1-0.5,0.1l-2.3,2.4c-1.3-0.1-1.9,0.5-1.9,2v3.6
	c-0.1,1-0.2,2.1-0.5,3.3c-0.3,1.2-0.8,2.1-1.4,2.8l31.4,0.3v-1l2.8-2.8v-2.3c-0.9,0-1.3-1.2-1.3-3.6V5.7L180.2,2.1z M148,43.1
	c-0.1,0-0.2,0-0.2-0.1c0,0,0-0.1,0.1-0.2c0.3-0.3,0.7-0.9,0.9-1.6c0.3-0.7,0.4-1.6,0.4-2.8V36v-1.2c0-0.3,0.2-0.3,0.5-0.2
	c0.7,0.9,2.2,1.4,4.5,1.4h12.4v-2.5v-5h-7.5c-2.3,0-3.8,0.4-4.6,1.2c-0.2,0.1-0.3,0.1-0.3-0.2v-1V26v-4.9v-1.2
	c0-0.4,0.1-0.4,0.3-0.2c0.9,0.9,2.4,1.4,4.6,1.4h7.5v-2.5v-5h-12.4c-2.4,0-3.9,0.4-4.5,1.2c-0.3,0.2-0.5,0.2-0.5-0.1v-1v-2.5
	c0-2.4-0.4-3.9-1.3-4.7c-0.1-0.1-0.1-0.1-0.1-0.2c0-0.1,0.1-0.1,0.2-0.1h26.9c0.2,0,0.3,0,0.4,0.1c0,0,0,0.1-0.2,0.2
	c-0.4,0.3-0.7,0.9-0.9,1.7s-0.3,1.7-0.3,2.9v2.5v24.7c0,3.2,0.8,4.8,2.5,4.8H148z M155,31.2c1.4-0.7,2.8-1,4-1h5.8v1.3h-7.4
	c-0.4,0-0.9,0-1.3,0C155.7,31.5,155.3,31.4,155,31.2z M158.6,15.3h6.3v1.4h-2.5C161.3,16.7,160,16.2,158.6,15.3z"/>
<path class="st0" d="M138.9,39.2v-2.5v-1c0-0.2,0-0.3-0.1-0.4c-0.1-0.1-0.1-0.1-0.2,0c-0.9,0.9-2.4,1.3-4.7,1.3H130v-25
	c0-2.3,0.5-3.8,1.4-4.5c0.1-0.1,0.1-0.2,0.1-0.3c0-0.1-0.1-0.2-0.3-0.2h-9.7c-0.2,0-0.3,0.1-0.3,0.2c0,0.1,0,0.2,0.1,0.3
	c0.8,0.6,1.2,2.1,1.2,4.5v2.8v9.8v8v4.5h-3.7c-2.3,0-3.9-0.4-4.7-1.3c-0.1-0.1-0.2-0.1-0.3,0c-0.1,0.1-0.1,0.2-0.1,0.4v1v2.5
	c0,2.3-0.4,3.9-1.3,4.6c-0.1,0.1-0.1,0.2-0.1,0.3c0,0.1,0.1,0.2,0.2,0.2h1.2h6.2h5h6.4h7.6h1.2v-0.1c0.1,0,0.2-0.1,0.2-0.2
	c0.1-0.1,0.1-0.2,0-0.3C139.4,43,138.9,41.5,138.9,39.2z"/>
<path d="M144.2,40.3c-0.5-0.4-0.8-1-0.8-1.7c0-0.8,0-1.7,0-2.7h-0.2v-5.2c-0.1,0-0.1,0-0.2,0.1v12l0.9-1.2c0.2-0.2,0.3-0.4,0.4-0.6
	C144.4,40.7,144.4,40.5,144.2,40.3z"/>
<path d="M140.3,31.7c-1,0.3-2.1,0.5-3.3,0.5h-2.7v-24c0-0.9,0.1-1.6,0.3-2.2c0.2-0.6,0.5-1.1,0.8-1.5c0-0.3,0.1-0.4,0.3-0.4l0.3-0.3
	c0.3-0.4,0.4-0.8,0.1-1.2c-0.2-0.4-0.9-0.6-1.8-0.6h-9.7c-0.8,0-1.4,0.2-1.7,0.5l-2.5,2.3c-0.8,0.2-1.3,0.5-1.6,1.1
	c-0.2,0.6-0.1,1.1,0.4,1.6c0.5,0.4,0.8,1,1,1.6c0.2,0.7,0.3,1.5,0.3,2.5v20.3c-0.9-0.2-1.7-0.5-2.4-1c-0.7-0.4-1.4-1-2.1-1.7l-3,3
	l-0.8-0.8l-0.4,5.4v2.5c0,0.9-0.1,1.7-0.4,2.4s-0.7,1.3-1.1,1.7c-0.2,0.1-0.3,0.4-0.3,0.6c0,0.1,0,0.1,0,0.2
	c0.1,0.3,0.3,0.5,0.5,0.8c0.3,0.3,0.6,0.5,0.9,0.7c0.4,0.2,0.7,0.3,1,0.3H140c0.6,0,1.1-0.2,1.6-0.7s0.7-0.9,0.6-1.4l0.8-1.2v-12
	C142.2,31,141.3,31.4,140.3,31.7z M140.3,44.1c0,0.1-0.1,0.2-0.2,0.2v0.1h-1.2h-7.6h-6.4h-5h-6.2h-1.2c-0.1,0-0.2-0.1-0.2-0.2
	c0-0.1,0-0.2,0.1-0.3c0.9-0.7,1.3-2.3,1.3-4.6v-2.5v-1c0-0.2,0-0.3,0.1-0.4c0.1-0.1,0.2-0.1,0.3,0c0.8,0.9,2.4,1.3,4.7,1.3h3.7v-4.5
	v-8v-9.8v-2.8c0-2.4-0.4-3.9-1.2-4.5c-0.1-0.1-0.1-0.2-0.1-0.3c0-0.1,0.1-0.2,0.3-0.2h9.7c0.2,0,0.3,0.1,0.3,0.2
	c0,0.1,0,0.2-0.1,0.3c-0.9,0.7-1.4,2.2-1.4,4.5v25h3.9c2.3,0,3.8-0.4,4.7-1.3c0.1-0.1,0.1-0.1,0.2,0c0.1,0.1,0.1,0.2,0.1,0.4v1v2.5
	c0,2.3,0.5,3.8,1.4,4.6C140.4,43.9,140.4,44,140.3,44.1z"/>
<path class="st0" d="M100.1,10.2c-1.1-1.1-2.5-2-4-2.7c-1.5-0.6-3.1-1-4.9-1h-2.5c-1.7,0-3.4,0.3-4.9,1c-1.5,0.6-2.9,1.5-4,2.7
	c-1.1,1.1-2.1,2.5-2.7,4c-0.7,1.5-1,3.2-1,4.9v12.5c0,1.7,0.3,3.4,1,4.9c0.7,1.5,1.6,2.9,2.7,4c1.1,1.1,2.5,2,4,2.7s3.2,1,4.9,1h2.5
	c1.7,0,3.4-0.3,4.9-1s2.8-1.6,4-2.7c1.1-1.1,2.1-2.5,2.7-4c0.7-1.5,1-3.2,1-4.9V19.1c0-1.8-0.3-3.4-1-4.9
	C102.1,12.7,101.2,11.3,100.1,10.2z M96.2,24.2v2.5v5c0,1.4-0.5,2.6-1.5,3.6s-2.2,1.5-3.5,1.5h-2.5c-1.5,0-2.7-0.5-3.6-1.5
	c-0.9-1-1.4-2.2-1.4-3.6v-5v-2.5v-5c0-1.4,0.5-2.6,1.4-3.6c0.9-1,2.2-1.5,3.6-1.5h2.5c1.3,0,2.5,0.5,3.5,1.5s1.5,2.2,1.5,3.6V24.2z"
	/>
<path d="M104.3,6c-1.3-1.2-2.7-2.2-4.4-2.9C98.2,2.4,96.4,2,94.5,2H92c-1.9,0-3.7,0.4-5.4,1.1c-1.7,0.7-3.1,1.6-4.4,2.9l-0.5,0.7
	c-2.1,1.2-3.9,2.8-5.2,5c-1.3,2.1-2,4.6-2,7.4v12.5c0,2,0.4,3.9,1.1,5.6c0.7,1.7,1.7,3.2,3,4.5c1.3,1.3,2.9,2.3,4.6,3.1
	c1.8,0.7,3.6,1.1,5.6,1.1h2.5c2.7,0,5.1-0.6,7.3-2c2.2-1.3,3.9-3,5.1-5.1l0.6-0.7c1.3-1.3,2.3-2.7,3-4.4c0.7-1.7,1.1-3.4,1.1-5.3
	V15.8c0-1.9-0.4-3.7-1.1-5.4C106.5,8.7,105.6,7.2,104.3,6z M103.8,31.6c0,1.7-0.3,3.4-1,4.9c-0.6,1.5-1.6,2.9-2.7,4
	c-1.2,1.1-2.5,2-4,2.7s-3.2,1-4.9,1h-2.5c-1.7,0-3.4-0.3-4.9-1s-2.9-1.6-4-2.7c-1.1-1.1-2-2.5-2.7-4c-0.7-1.5-1-3.2-1-4.9V19.1
	c0-1.7,0.3-3.4,1-4.9c0.6-1.5,1.6-2.9,2.7-4c1.1-1.2,2.5-2.1,4-2.7c1.5-0.7,3.2-1,4.9-1h2.5c1.8,0,3.4,0.4,4.9,1
	c1.5,0.7,2.9,1.6,4,2.7c1.1,1.1,2,2.5,2.7,4c0.7,1.5,1,3.1,1,4.9V31.6z"/>
<path d="M91.2,14.1h-2.5c-1.4,0-2.7,0.5-3.6,1.5c-0.9,1-1.4,2.2-1.4,3.6v5v2.5v5c0,1.4,0.5,2.6,1.4,3.6c0.9,1,2.1,1.5,3.6,1.5h2.5
	c1.3,0,2.5-0.5,3.5-1.5s1.5-2.2,1.5-3.6v-5v-2.5v-5c0-1.4-0.5-2.6-1.5-3.6S92.5,14.1,91.2,14.1z M94.6,31.7v0.5h-2.5
	c-1.1,0-2.1-0.4-2.8-1.2s-1.1-1.7-1.1-2.7V15.7h0.5h2.5c0.9,0,1.6,0.4,2.3,1c0.7,0.7,1,1.5,1,2.4h0.1V31.7z"/>
</svg>
